<svg width="60" height="61" viewBox="0 0 60 61" fill="none" xmlns="http://www.w3.org/2000/svg">
<path d="M0 30.1719C0 13.6033 13.4315 0.171875 30 0.171875C46.5685 0.171875 60 13.6033 60 30.1719C60 46.7404 46.5685 60.1719 30 60.1719C13.4315 60.1719 0 46.7404 0 30.1719Z" fill="#EFF6F1"/>
<g clip-path="url(#clip0_1_468)">
<path fill-rule="evenodd" clip-rule="evenodd" d="M39.2828 30.4562C39.2828 25.3291 34.9657 21.1719 29.6414 21.1719C24.3171 21.1719 20 25.3291 20 30.4562C20 35.0901 23.5251 38.9311 28.1349 39.6282V33.1408H25.6863V30.4562H28.1349V28.4107C28.1349 26.0843 29.5747 24.7981 31.7767 24.7981C32.8317 24.7981 33.9353 24.9797 33.9353 24.9797V27.2647H32.7189C31.5219 27.2647 31.1475 27.9801 31.1475 28.7154V30.4562H33.8212L33.3942 33.1408H31.1479V39.6291C35.7577 38.9323 39.2828 35.0913 39.2828 30.4562Z" fill="#274C5B"/>
</g>
<defs>
<clipPath id="clip0_1_468">
<rect width="20" height="19" fill="white" transform="translate(20 21.1719)"/>
</clipPath>
</defs>
</svg>
