<svg width="60" height="61" viewBox="0 0 60 61" fill="none" xmlns="http://www.w3.org/2000/svg">
<path d="M0 30.1719C0 13.6033 13.4315 0.171875 30 0.171875C46.5685 0.171875 60 13.6033 60 30.1719C60 46.7404 46.5685 60.1719 30 60.1719C13.4315 60.1719 0 46.7404 0 30.1719Z" fill="#EFF6F1"/>
<g clip-path="url(#clip0_1_476)">
<path d="M33.6585 22.7191C34.7231 22.7222 35.7431 23.1308 36.4958 23.8556C37.2486 24.5805 37.6729 25.5628 37.6761 26.5879V34.3246C37.6729 35.3497 37.2486 36.3319 36.4958 37.0568C35.7431 37.7817 34.7231 38.1902 33.6585 38.1933H25.6243C24.5598 38.1902 23.5397 37.7817 22.787 37.0568C22.0342 36.3319 21.6099 35.3497 21.6068 34.3246V26.5879C21.6099 25.5628 22.0342 24.5805 22.787 23.8556C23.5397 23.1308 24.5598 22.7222 25.6243 22.7191H33.6585ZM33.6585 21.1719H25.6243C22.5309 21.1719 20 23.609 20 26.5879V34.3246C20 37.3034 22.5309 39.7405 25.6243 39.7405H33.6585C36.752 39.7405 39.2828 37.3034 39.2828 34.3246V26.5879C39.2828 23.609 36.752 21.1719 33.6585 21.1719Z" fill="#274C5B"/>
<path d="M34.8633 26.5887C34.6249 26.5887 34.3919 26.5206 34.1937 26.3931C33.9956 26.2656 33.8411 26.0843 33.7499 25.8722C33.6587 25.6602 33.6348 25.4268 33.6813 25.2017C33.7278 24.9766 33.8426 24.7698 34.0111 24.6075C34.1797 24.4452 34.3944 24.3347 34.6282 24.2899C34.862 24.2451 35.1043 24.2681 35.3245 24.3559C35.5447 24.4438 35.7329 24.5925 35.8654 24.7834C35.9978 24.9742 36.0685 25.1986 36.0685 25.4281C36.0688 25.5806 36.0379 25.7317 35.9774 25.8726C35.917 26.0136 35.8282 26.1416 35.7163 26.2495C35.6043 26.3573 35.4713 26.4428 35.3249 26.501C35.1785 26.5592 35.0217 26.589 34.8633 26.5887ZM29.641 27.3621C30.2767 27.3621 30.8981 27.5436 31.4266 27.8837C31.9551 28.2237 32.3671 28.7071 32.6103 29.2726C32.8536 29.8381 32.9172 30.4604 32.7932 31.0608C32.6692 31.6612 32.3631 32.2126 31.9136 32.6455C31.4641 33.0783 30.8915 33.3731 30.268 33.4925C29.6446 33.6119 28.9984 33.5506 28.4111 33.3164C27.8238 33.0821 27.3219 32.6854 26.9687 32.1765C26.6156 31.6675 26.4271 31.0691 26.4271 30.457C26.428 29.6364 26.7669 28.8497 27.3694 28.2695C27.972 27.6893 28.7889 27.363 29.641 27.3621ZM29.641 25.8148C28.6876 25.8148 27.7555 26.0871 26.9628 26.5972C26.17 27.1073 25.5521 27.8323 25.1873 28.6805C24.8224 29.5288 24.7269 30.4621 24.9129 31.3627C25.0989 32.2632 25.5581 33.0903 26.2323 33.7395C26.9064 34.3887 27.7654 34.8309 28.7005 35.01C29.6357 35.1891 30.605 35.0972 31.4858 34.7458C32.3667 34.3945 33.1196 33.7995 33.6493 33.0361C34.179 32.2727 34.4617 31.3752 34.4617 30.457C34.4617 29.2258 33.9538 28.0451 33.0498 27.1745C32.1457 26.3039 30.9196 25.8148 29.641 25.8148Z" fill="#274C5B"/>
</g>
<defs>
<clipPath id="clip0_1_476">
<rect width="20" height="19" fill="white" transform="translate(20 21.1719)"/>
</clipPath>
</defs>
</svg>
