<svg width="60" height="61" viewBox="0 0 60 61" fill="none" xmlns="http://www.w3.org/2000/svg">
<path d="M0 30.1719C0 13.6033 13.4315 0.171875 30 0.171875C46.5685 0.171875 60 13.6033 60 30.1719C60 46.7404 46.5685 60.1719 30 60.1719C13.4315 60.1719 0 46.7404 0 30.1719Z" fill="#EFF6F1"/>
<g clip-path="url(#clip0_1_481)">
<path d="M29.7966 20.1719C24.3866 20.1719 20 24.5565 20 29.9641C20 33.9729 22.4142 37.4177 25.8649 38.9346C25.8386 38.2526 25.8605 37.4308 26.0354 36.6876C26.2235 35.892 27.295 31.3499 27.295 31.3499C27.295 31.3499 26.9801 30.7248 26.9801 29.8024C26.9801 28.351 27.8198 27.2669 28.8695 27.2669C29.7617 27.2669 30.1903 27.9357 30.1903 28.7357C30.1903 29.6319 29.6173 30.9696 29.3243 32.2111C29.0794 33.2516 29.8448 34.0953 30.8725 34.0953C32.7269 34.0953 33.9777 31.7128 33.9777 28.8887C33.9777 26.7423 32.5301 25.138 29.9016 25.138C26.932 25.138 25.0776 27.3543 25.0776 29.8286C25.0776 30.6811 25.3313 31.2844 25.7249 31.7478C25.9042 31.962 25.9305 32.0494 25.8649 32.2942C25.8168 32.4734 25.7118 32.9062 25.6637 33.0811C25.5981 33.3303 25.3969 33.4177 25.1739 33.3259C23.8049 32.7663 23.1664 31.2713 23.1664 29.5838C23.1664 26.8035 25.515 23.468 30.1684 23.468C33.9077 23.468 36.37 26.174 36.37 29.0767C36.37 32.9193 34.2314 35.7871 31.0824 35.7871C30.0241 35.7871 29.0313 35.2144 28.6901 34.5674C28.6901 34.5674 28.1216 36.8231 27.9991 37.2603C27.7936 38.0166 27.3868 38.7685 27.0151 39.3586C27.9169 39.6245 28.8521 39.76 29.7923 39.7608C35.2023 39.7608 39.5889 35.3761 39.5889 29.9685C39.5889 24.5609 35.2067 20.1719 29.7966 20.1719Z" fill="#274C5B"/>
</g>
<defs>
<clipPath id="clip0_1_481">
<rect width="20" height="20" fill="white" transform="translate(20 20.1719)"/>
</clipPath>
</defs>
</svg>
