<svg width="60" height="61" viewBox="0 0 60 61" fill="none" xmlns="http://www.w3.org/2000/svg">
<path d="M0 30.1719C0 13.6033 13.4315 0.171875 30 0.171875C46.5685 0.171875 60 13.6033 60 30.1719C60 46.7404 46.5685 60.1719 30 60.1719C13.4315 60.1719 0 46.7404 0 30.1719Z" fill="#EFF6F1"/>
<g clip-path="url(#clip0_1_472)">
<path d="M40.6602 24.1303C39.8852 24.467 39.0652 24.6889 38.2261 24.7888C39.1079 24.2725 39.7711 23.4522 40.0912 22.4818C39.2575 22.9693 38.3469 23.3113 37.3984 23.4933C36.9991 23.0747 36.5187 22.7417 35.9866 22.5146C35.4546 22.2874 34.8818 22.1708 34.3033 22.1719C31.9609 22.1719 30.0654 24.0399 30.0654 26.3427C30.0637 26.663 30.1004 26.9823 30.1747 27.2939C28.4951 27.2151 26.8504 26.7867 25.3458 26.0359C23.8413 25.2851 22.51 24.2285 21.4372 22.9337C21.0608 23.5682 20.8618 24.2922 20.8608 25.0299C20.8608 26.4761 21.6154 27.7544 22.7547 28.5034C22.0797 28.4873 21.4185 28.3087 20.8273 27.9826V28.0342C20.8273 30.0572 22.2907 31.7401 24.2276 32.1232C23.8634 32.2203 23.488 32.2695 23.1111 32.2696C22.8436 32.27 22.5767 32.2441 22.3144 32.1921C22.8528 33.8492 24.42 35.0544 26.2764 35.0888C24.7679 36.2513 22.9159 36.8797 21.0115 36.8751C20.6734 36.8746 20.3357 36.8544 20 36.8148C21.9374 38.0519 24.1895 38.7063 26.4882 38.7C34.2943 38.7 38.5589 32.3427 38.5589 26.829C38.5589 26.6483 38.5541 26.4675 38.5455 26.291C39.3733 25.7022 40.0893 24.9705 40.6602 24.1303Z" fill="#274C5B"/>
</g>
<defs>
<clipPath id="clip0_1_472">
<rect width="21" height="17" fill="white" transform="translate(20 22.1719)"/>
</clipPath>
</defs>
</svg>
